# Blender v3.0.0 OBJ File: 'pcb.blend'
# www.blender.org
mtllib battery.mtl
o battery
v -0.863830 0.141228 -0.500000
v -0.863830 0.141228 0.500000
v 0.863830 0.141228 0.500000
v 0.863830 0.141228 -0.500000
v -0.863830 0.148486 0.500000
v -0.863830 0.157035 0.499158
v -0.863830 0.165255 0.496664
v -0.863830 0.172831 0.492615
v -0.863830 0.179472 0.487165
v -0.863830 0.184921 0.480525
v -0.863830 0.188971 0.472949
v -0.863830 0.191465 0.464728
v 0.863830 0.148486 0.500000
v 0.863830 0.191465 0.464728
v 0.863830 0.188971 0.472949
v 0.863830 0.184921 0.480525
v 0.863830 0.179472 0.487165
v 0.863830 0.172831 0.492615
v 0.863830 0.165255 0.496664
v 0.863830 0.157035 0.499158
v -0.863830 0.141228 -0.500000
v -0.863830 0.191325 -0.457219
v -0.863830 0.188418 -0.467189
v -0.863830 0.183698 -0.476378
v -0.863830 0.177346 -0.484433
v -0.863830 0.169606 -0.491043
v -0.863830 0.160775 -0.495954
v -0.863830 0.151193 -0.498979
v 0.863830 0.141228 -0.500000
v 0.863830 0.151193 -0.498979
v 0.863830 0.160775 -0.495954
v 0.863830 0.169606 -0.491043
v 0.863830 0.177346 -0.484433
v 0.863830 0.183698 -0.476378
v 0.863830 0.188418 -0.467189
v 0.863830 0.191325 -0.457219
v -0.808715 0.192307 0.456179
v -0.863830 0.191465 0.464728
v -0.819467 0.192290 0.456343
v -0.829806 0.192242 0.456830
v -0.839335 0.192165 0.457620
v -0.847687 0.192060 0.458683
v -0.854541 0.191932 0.459979
v -0.859634 0.191787 0.461457
v -0.862771 0.191629 0.463060
v -0.863830 0.191325 -0.457219
v -0.808715 0.192307 -0.446849
v -0.862771 0.191517 -0.455196
v -0.859634 0.191701 -0.453251
v -0.854541 0.191870 -0.451458
v -0.847687 0.192019 -0.449886
v -0.839335 0.192141 -0.448597
v -0.829806 0.192232 -0.447639
v -0.819467 0.192288 -0.447049
v 0.863830 0.191465 0.464728
v 0.797572 0.192307 0.456179
v 0.862557 0.191629 0.463060
v 0.858786 0.191787 0.461457
v 0.852663 0.191932 0.459979
v 0.844423 0.192060 0.458683
v 0.834383 0.192165 0.457620
v 0.822928 0.192242 0.456830
v 0.810498 0.192290 0.456343
v 0.797572 0.192307 -0.446849
v 0.863830 0.191325 -0.457219
v 0.810498 0.192288 -0.447049
v 0.822928 0.192232 -0.447639
v 0.834383 0.192141 -0.448597
v 0.844423 0.192019 -0.449886
v 0.852663 0.191870 -0.451458
v 0.858786 0.191701 -0.453251
v 0.862557 0.191517 -0.455196
v -0.863830 0.000000 0.444594
v -0.863830 0.055406 0.500000
v -0.863830 0.001065 0.455403
v -0.863830 0.004218 0.465797
v -0.863830 0.009338 0.475376
v -0.863830 0.016228 0.483772
v -0.863830 0.024624 0.490662
v -0.863830 0.034203 0.495782
v -0.863830 0.044597 0.498935
v 0.863830 0.055406 0.500000
v 0.863830 0.000000 0.444594
v 0.863830 0.044597 0.498935
v 0.863830 0.034203 0.495782
v 0.863830 0.024624 0.490662
v 0.863830 0.016228 0.483772
v 0.863830 0.009338 0.475376
v 0.863830 0.004218 0.465797
v 0.863830 0.001065 0.455403
v -0.863830 0.039932 -0.500000
v -0.863830 0.000000 -0.460068
v -0.863830 0.032142 -0.499233
v -0.863830 0.024651 -0.496960
v -0.863830 0.017747 -0.493270
v -0.863830 0.011696 -0.488304
v -0.863830 0.006730 -0.482253
v -0.863830 0.003040 -0.475349
v -0.863830 0.000767 -0.467858
v 0.863830 0.000000 -0.460068
v 0.863830 0.039932 -0.500000
v 0.863830 0.000767 -0.467858
v 0.863830 0.003040 -0.475349
v 0.863830 0.006730 -0.482253
v 0.863830 0.011696 -0.488304
v 0.863830 0.017747 -0.493270
v 0.863830 0.024651 -0.496960
v 0.863830 0.032142 -0.499233
vt 0.000000 0.000000
vt 1.000000 0.000000
vt 1.000000 0.000000
vt 0.000000 0.000000
vt 1.000000 0.000355
vt 1.000000 0.001406
vt 1.000000 0.003113
vt 1.000000 0.005409
vt 1.000000 0.024624
vt 1.000000 0.034203
vt 1.000000 0.044597
vt 1.000000 0.055406
vt 1.000000 0.960068
vt 1.000000 0.967858
vt 1.000000 0.975349
vt 1.000000 0.982253
vt 1.000000 0.996101
vt 1.000000 0.997757
vt 1.000000 0.998987
vt 1.000000 0.999744
vt 1.000000 1.000000
vt 1.000000 1.000000
vt 0.000000 1.000000
vt 0.000000 0.999744
vt 0.000000 0.998987
vt 0.000000 0.997757
vt 0.000000 0.996101
vt 0.000000 0.982253
vt 0.000000 0.975349
vt 0.000000 0.967858
vt 0.000000 0.960068
vt 0.000000 0.055406
vt 0.000000 0.044597
vt 0.000000 0.034203
vt 0.000000 0.024624
vt 0.000000 0.005409
vt 0.000000 0.003113
vt 0.000000 0.001406
vt 0.000000 0.000355
vt 0.000000 1.000000
vt 1.000000 0.000000
vt 0.000000 0.000000
vt 0.031902 0.043821
vt 0.961649 0.043821
vt 0.961649 0.946849
vt 0.031902 0.946849
vt 1.000000 0.000281
vt 0.000000 0.000281
vt 1.000000 0.001112
vt 0.000000 0.001112
vt 1.000000 0.002462
vt 0.000000 0.002462
vt 1.000000 0.004278
vt 0.000000 0.004278
vt 1.000000 0.019475
vt 0.000000 0.019475
vt 1.000000 0.027051
vt 0.000000 0.027051
vt 1.000000 0.035272
vt 0.000000 0.035272
vt 1.000000 0.957219
vt 0.000000 0.957219
vt 0.000000 0.957219
vt 0.000204 0.955196
vt 0.000809 0.953251
vt 0.001792 0.951458
vt 0.003115 0.947862
vt 0.014178 0.948597
vt 0.019693 0.947639
vt 0.025678 0.947049
vt 0.969131 0.947049
vt 0.976325 0.947639
vt 0.982956 0.948597
vt 0.996256 0.947862
vt 0.997846 0.951458
vt 0.999027 0.953251
vt 0.999754 0.955196
vt 1.000000 0.957219
vt 0.000000 0.035272
vt 0.000000 0.967189
vt 0.000000 0.976378
vt 0.000000 0.994811
vt 0.000000 0.997014
vt 0.000000 0.998651
vt 0.000000 0.999660
vt 0.000000 1.000000
vt 1.000000 1.000000
vt 1.000000 0.999660
vt 1.000000 0.998651
vt 1.000000 0.997014
vt 1.000000 0.994811
vt 1.000000 0.976378
vt 1.000000 0.967189
vt 0.025678 0.043657
vt 0.019693 0.043170
vt 0.014178 0.042380
vt 0.003115 0.042986
vt 0.001792 0.040021
vt 0.000809 0.038543
vt 0.000204 0.036940
vt 1.000000 0.035272
vt 0.999754 0.036940
vt 0.999027 0.038543
vt 0.997846 0.040021
vt 0.996256 0.042986
vt 0.982956 0.042380
vt 0.976325 0.043170
vt 0.969131 0.043657
vn 0.0000 0.0000 1.0000
vn 1.0000 -0.0000 0.0000
vn -1.0000 -0.0000 0.0000
vn 0.0000 1.0000 0.0000
vn 0.0000 0.0980 0.9952
vn 0.0000 0.2903 0.9569
vn 0.0000 0.4714 0.8819
vn 0.0000 0.6344 0.7730
vn 0.0000 0.7730 0.6344
vn 0.0000 0.8819 0.4714
vn 0.0000 0.9569 0.2903
vn 0.0000 0.9956 -0.0942
vn 0.0000 0.1019 -0.9948
vn 0.0000 0.3010 -0.9536
vn 0.0000 0.4861 -0.8739
vn 0.0000 0.6494 -0.7604
vn 0.0000 0.7852 -0.6193
vn 0.0000 0.8895 -0.4569
vn 0.0000 0.9600 -0.2799
vn -0.0016 1.0000 -0.0000
vn -0.0050 1.0000 -0.0000
vn -0.0088 1.0000 -0.0000
vn -0.0136 0.9999 -0.0000
vn -0.0202 0.9998 -0.0001
vn -0.0309 0.9995 -0.0001
vn -0.0544 0.9985 -0.0001
vn -0.1656 0.9862 -0.0001
vn 0.1384 0.9904 -0.0001
vn 0.0453 0.9990 -0.0001
vn 0.0257 0.9997 -0.0001
vn 0.0168 0.9999 -0.0001
vn 0.0113 0.9999 -0.0000
vn 0.0074 1.0000 -0.0000
vn 0.0042 1.0000 -0.0000
vn 0.0014 1.0000 -0.0000
vn -0.0000 0.9952 0.0980
vn 0.0000 -0.9952 0.0980
vn 0.0000 -0.9569 0.2903
vn 0.0000 -0.8819 0.4714
vn 0.0000 -0.7730 0.6344
vn 0.0000 -0.6344 0.7730
vn 0.0000 -0.4714 0.8819
vn 0.0000 -0.2903 0.9569
vn 0.0000 -0.0980 0.9952
vn 0.0000 -1.0000 0.0000
vn 0.0000 -0.9952 -0.0980
vn 0.0000 -0.9569 -0.2903
vn 0.0000 -0.8819 -0.4714
vn 0.0000 -0.7730 -0.6344
vn -0.0000 -0.6344 -0.7730
vn -0.0000 -0.4714 -0.8819
vn -0.0000 -0.2903 -0.9569
vn 0.0000 -0.0980 -0.9952
vn 0.0000 0.0000 -1.0000
usemtl battery
s off
f 74/1/1 82/2/1 3/3/1 2/4/1
f 82/2/2 84/5/2 85/6/2 86/7/2 87/8/2 88/9/2 89/10/2 90/11/2 83/12/2 100/13/2 102/14/2 103/15/2 104/16/2 105/17/2 106/18/2 107/19/2 108/20/2 101/21/2 4/22/2 3/3/2
f 91/23/3 93/24/3 94/25/3 95/26/3 96/27/3 97/28/3 98/29/3 99/30/3 92/31/3 73/32/3 75/33/3 76/34/3 77/35/3 78/36/3 79/37/3 80/38/3 81/39/3 74/1/3 2/4/3 1/40/3
f 2/4/1 3/3/1 13/41/1 5/42/1
f 37/43/4 56/44/4 64/45/4 47/46/4
f 5/42/5 13/41/5 20/47/5 6/48/5
f 6/48/6 20/47/6 19/49/6 7/50/6
f 7/50/7 19/49/7 18/51/7 8/52/7
f 8/52/8 18/51/8 17/53/8 9/54/8
f 9/54/9 17/53/9 16/55/9 10/56/9
f 10/56/10 16/55/10 15/57/10 11/58/10
f 11/58/11 15/57/11 14/59/11 12/60/11
f 36/61/12 22/62/12 46/63/12 48/64/12 49/65/12 50/66/12 51/67/12 52/68/12 53/69/12 54/70/12 47/46/12 64/45/12 66/71/12 67/72/12 68/73/12 69/74/12 70/75/12 71/76/12 72/77/12 65/78/12
f 1/40/3 2/4/3 5/42/3 6/48/3 7/50/3 8/52/3 9/54/3 10/56/3 11/58/3 12/60/3 38/79/3 46/63/3 22/62/3 23/80/3 24/81/3 25/82/3 26/83/3 27/84/3 28/85/3 21/86/3
f 29/87/13 21/86/13 28/85/13 30/88/13
f 30/88/14 28/85/14 27/84/14 31/89/14
f 31/89/15 27/84/15 26/83/15 32/90/15
f 32/90/16 26/83/16 25/82/16 33/91/16
f 33/91/17 25/82/17 24/81/17 34/92/17
f 34/92/18 24/81/18 23/80/18 35/93/18
f 35/93/19 23/80/19 22/62/19 36/61/19
f 4/22/1 1/40/1 21/86/1 29/87/1
f 37/43/20 47/46/20 54/70/20 39/94/20
f 39/94/21 54/70/21 53/69/21 40/95/21
f 40/95/22 53/69/22 52/68/22 41/96/22
f 41/96/23 52/68/23 51/67/23 42/97/23
f 42/97/24 51/67/24 50/66/24 43/98/24
f 43/98/25 50/66/25 49/65/25 44/99/25
f 44/99/26 49/65/26 48/64/26 45/100/26
f 45/100/27 48/64/27 46/63/27 38/79/27
f 3/3/2 4/22/2 29/87/2 30/88/2 31/89/2 32/90/2 33/91/2 34/92/2 35/93/2 36/61/2 65/78/2 55/101/2 14/59/2 15/57/2 16/55/2 17/53/2 18/51/2 19/49/2 20/47/2 13/41/2
f 55/101/28 65/78/28 72/77/28 57/102/28
f 57/102/29 72/77/29 71/76/29 58/103/29
f 58/103/30 71/76/30 70/75/30 59/104/30
f 59/104/31 70/75/31 69/74/31 60/105/31
f 60/105/32 69/74/32 68/73/32 61/106/32
f 61/106/33 68/73/33 67/72/33 62/107/33
f 62/107/34 67/72/34 66/71/34 63/108/34
f 63/108/35 66/71/35 64/45/35 56/44/35
f 12/60/36 14/59/36 55/101/36 57/102/36 58/103/36 59/104/36 60/105/36 61/106/36 62/107/36 63/108/36 56/44/36 37/43/36 39/94/36 40/95/36 41/96/36 42/97/36 43/98/36 44/99/36 45/100/36 38/79/36
f 73/32/37 83/12/37 90/11/37 75/33/37
f 75/33/38 90/11/38 89/10/38 76/34/38
f 76/34/39 89/10/39 88/9/39 77/35/39
f 77/35/40 88/9/40 87/8/40 78/36/40
f 78/36/41 87/8/41 86/7/41 79/37/41
f 79/37/42 86/7/42 85/6/42 80/38/42
f 80/38/43 85/6/43 84/5/43 81/39/43
f 81/39/44 84/5/44 82/2/44 74/1/44
f 73/32/45 92/31/45 100/13/45 83/12/45
f 100/13/46 92/31/46 99/30/46 102/14/46
f 102/14/47 99/30/47 98/29/47 103/15/47
f 103/15/48 98/29/48 97/28/48 104/16/48
f 104/16/49 97/28/49 96/27/49 105/17/49
f 105/17/50 96/27/50 95/26/50 106/18/50
f 106/18/51 95/26/51 94/25/51 107/19/51
f 107/19/52 94/25/52 93/24/52 108/20/52
f 108/20/53 93/24/53 91/23/53 101/21/53
f 101/21/54 91/23/54 1/40/54 4/22/54
