# Blender v3.0.0 OBJ File: 'pcb.blend'
# www.blender.org
mtllib switch.mtl
o switch
v -0.320539 0.000000 0.131195
v 0.320539 0.000000 0.131195
v 0.320539 0.000000 -0.143586
v -0.320539 0.000000 -0.143586
v -0.310444 0.000000 0.131195
v -0.310444 0.000000 -0.143586
v 0.309182 0.000000 0.131195
v 0.309182 0.000000 -0.143586
v -0.009447 0.000000 -0.500000
v -0.009447 0.000000 0.131195
v -0.009447 0.000000 -0.143586
v -0.109358 0.000000 -0.500000
v -0.109358 0.000000 0.131195
v -0.109358 0.000000 -0.143586
v -0.109358 0.164588 0.131195
v -0.310444 0.164588 0.131195
v -0.109358 0.164588 -0.143586
v -0.310444 0.164588 -0.143586
v 0.309182 0.164588 0.131195
v 0.309182 0.164588 -0.143586
v -0.009447 0.164588 0.131195
v -0.009447 0.164588 -0.143586
v -0.009447 0.093692 -0.143586
v -0.009447 0.093692 -0.500000
v -0.109358 0.093692 -0.500000
v -0.109358 0.093692 -0.143586
vt 0.982283 0.368805
vt 1.000000 0.368805
vt 1.000000 0.643586
vt 0.982283 0.643586
vt 0.000000 0.368805
vt 0.015748 0.368805
vt 0.015748 0.643586
vt 0.000000 0.643586
vt 0.982283 0.643586
vt 0.982283 0.368805
vt 0.485264 0.643586
vt 0.485264 1.000000
vt 0.485264 1.000000
vt 0.485264 0.643586
vt 0.329416 0.368805
vt 0.485264 0.368805
vt 0.485264 0.368805
vt 0.329416 0.368805
vt 0.015748 0.368805
vt 0.485264 0.643586
vt 0.329416 0.643586
vt 0.015748 0.643586
vt 0.329416 0.643586
vt 0.329416 0.643586
vt 0.329416 1.000000
vt 0.329416 1.000000
vt 0.000000 0.000000
vt 0.000000 0.000000
vt 0.000000 0.000000
vt 0.000000 0.000000
vn 0.0000 1.0000 0.0000
vn 1.0000 0.0000 0.0000
vn 0.0000 0.0000 1.0000
vn 0.0000 0.0000 -1.0000
vn -1.0000 0.0000 0.0000
usemtl switch
s off
f 7/1/1 2/2/1 3/3/1 8/4/1
f 1/5/1 5/6/1 6/7/1 4/8/1
f 7/1/2 8/4/2 20/9/2 19/10/2
f 11/11/2 9/12/2 24/13/2 23/14/2
f 13/15/3 10/16/3 21/17/3 15/18/3
f 5/6/3 13/15/3 15/18/3 16/19/3
f 21/17/1 19/10/1 20/9/1 22/20/1
f 15/18/1 21/17/1 22/20/1 17/21/1
f 16/19/1 15/18/1 17/21/1 18/22/1
f 8/4/4 11/11/4 22/20/4 20/9/4
f 14/23/4 6/7/4 18/22/4 17/21/4
f 11/11/4 14/23/4 17/21/4 22/20/4
f 10/16/3 7/1/3 19/10/3 21/17/3
f 6/7/5 5/6/5 16/19/5 18/22/5
f 26/24/1 23/14/1 24/13/1 25/25/1
f 12/26/5 14/23/5 26/24/5 25/25/5
f 14/23/3 11/11/3 23/14/3 26/24/3
f 9/27/4 12/28/4 25/29/4 24/30/4
